<svg xmlns="http://www.w3.org/2000/svg" version="1.1" xmlns:xlink="http://www.w3.org/1999/xlink" xmlns:svgjs="http://svgjs.dev/svgjs" width="1000" height="1000" viewBox="0 0 1000 1000"><rect width="1000" height="1000" fill="#ffffff"></rect><g transform="matrix(0.7,0,0,0.7,149.57575757575756,381.0719542696462)"><svg viewBox="0 0 396 135" data-background-color="#ffffff" preserveAspectRatio="xMidYMid meet" height="340" width="1000" xmlns="http://www.w3.org/2000/svg" xmlns:xlink="http://www.w3.org/1999/xlink"><g id="tight-bounds" transform="matrix(1,0,0,1,0.2400000000000091,-0.040814396648073625)"><svg viewBox="0 0 395.52 135.0816266184649" height="135.0816266184649" width="395.52"><g><svg viewBox="0 0 395.52 135.0816266184649" height="135.0816266184649" width="395.52"><g transform="matrix(1,0,0,1,0,83.48586445630272)"><svg viewBox="0 0 395.52 51.59576216216217" height="51.59576216216217" width="395.52"><g id="textblocktransform"><svg viewBox="0 0 395.52 51.59576216216217" height="51.59576216216217" width="395.52" id="textblock"><g><svg viewBox="0 0 395.52 51.59576216216217" height="51.59576216216217" width="395.52"><g transform="matrix(1,0,0,1,0,0)"><svg width="395.52" viewBox="3.549999952316284 -35.599998474121094 277.4800109863281 36.19999694824219" height="51.59576216216217" data-palette-color="#89939e"><path d="M8.85 0L3.55 0 3.55-35 8.85-35 8.85-20 22.65-35 29.2-35 16.25-21.05 29.5 0 23.05 0 12.45-17 8.85-13.1 8.85 0ZM56.35 0L34.1 0 34.1-35 56.35-35 56.35-30.7 39.4-30.7 39.4-19.8 54.85-19.8 54.85-15.6 39.4-15.6 39.4-4.3 56.35-4.3 56.35 0ZM76.84 0L71.55 0 71.55-12.9 59.95-35 65.94-35 74.19-18.1 82.39-35 88.34-35 76.84-12.9 76.84 0ZM106.34 0L92.74 0 92.74-35 105.94-35Q111.39-35 114.19-32.45 116.99-29.9 116.99-26.05L116.99-26.05Q116.99-22.7 115.19-20.73 113.39-18.75 110.84-18.05L110.84-18.05Q112.84-17.65 114.42-16.45 115.99-15.25 116.89-13.45 117.79-11.65 117.79-9.55L117.79-9.55Q117.79-6.85 116.47-4.67 115.14-2.5 112.59-1.25 110.04 0 106.34 0L106.34 0ZM98.04-30.7L98.04-20 105.29-20Q108.34-20 109.94-21.43 111.54-22.85 111.54-25.35L111.54-25.35Q111.54-27.8 109.97-29.25 108.39-30.7 105.19-30.7L105.19-30.7 98.04-30.7ZM98.04-15.9L98.04-4.35 105.64-4.35Q108.84-4.35 110.62-5.85 112.39-7.35 112.39-10.05L112.39-10.05Q112.39-12.75 110.54-14.33 108.69-15.9 105.54-15.9L105.54-15.9 98.04-15.9ZM143.24-12.3L122.89-12.3 122.89-16.75 143.24-16.75 143.24-12.3ZM162.69 0.6L162.69 0.6Q158.94 0.6 155.91-0.88 152.89-2.35 151.11-5.4 149.34-8.45 149.34-13.15L149.34-13.15 149.34-35 154.64-35 154.64-13.1Q154.64-8.5 156.84-6.35 159.04-4.2 162.79-4.2L162.79-4.2Q166.49-4.2 168.69-6.35 170.89-8.5 170.89-13.1L170.89-13.1 170.89-35 176.19-35 176.19-13.15Q176.19-8.45 174.36-5.4 172.54-2.35 169.46-0.88 166.39 0.6 162.69 0.6ZM188.28 0L182.99 0 182.99-35 188.28-35 188.28 0ZM216.58 0L195.38 0 195.38-35 200.68-35 200.68-4.2 216.58-4.2 216.58 0ZM233.63 0L222.28 0 222.28-35 233.63-35Q239.78-35 243.76-32.85 247.73-30.7 249.66-26.78 251.58-22.85 251.58-17.45L251.58-17.45Q251.58-12.1 249.66-8.18 247.73-4.25 243.76-2.13 239.78 0 233.63 0L233.63 0ZM227.58-30.55L227.58-4.5 233.43-4.5Q238.18-4.5 240.96-6.05 243.73-7.6 244.96-10.5 246.18-13.4 246.18-17.45L246.18-17.45Q246.18-21.5 244.96-24.45 243.73-27.4 240.96-28.98 238.18-30.55 233.43-30.55L233.43-30.55 227.58-30.55ZM268.98 0.6L268.98 0.6Q265.13 0.6 262.23-0.75 259.33-2.1 257.7-4.6 256.08-7.1 256.03-10.55L256.03-10.55 261.63-10.55Q261.68-7.75 263.58-5.8 265.48-3.85 268.93-3.85L268.93-3.85Q271.98-3.85 273.7-5.33 275.43-6.8 275.43-9.1L275.43-9.1Q275.43-10.95 274.6-12.1 273.78-13.25 272.35-14 270.93-14.75 269.08-15.35 267.23-15.95 265.18-16.65L265.18-16.65Q261.13-18 259.1-20.15 257.08-22.3 257.08-25.8L257.08-25.8Q257.03-28.75 258.45-30.95 259.88-33.15 262.45-34.38 265.03-35.6 268.48-35.6L268.48-35.6Q271.88-35.6 274.45-34.35 277.03-33.1 278.48-30.88 279.93-28.65 279.98-25.7L279.98-25.7 274.38-25.7Q274.38-27.05 273.68-28.28 272.98-29.5 271.63-30.3 270.28-31.1 268.33-31.1L268.33-31.1Q265.83-31.15 264.2-29.85 262.58-28.55 262.58-26.25L262.58-26.25Q262.58-24.2 263.78-23.1 264.98-22 267.08-21.28 269.18-20.55 271.88-19.6L271.88-19.6Q274.48-18.75 276.53-17.55 278.58-16.35 279.8-14.4 281.03-12.45 281.03-9.45L281.03-9.45Q281.03-6.8 279.68-4.53 278.33-2.25 275.63-0.83 272.93 0.6 268.98 0.6Z" opacity="1" transform="matrix(1,0,0,1,0,0)" fill="#89939e" class="undefined-text-0" data-fill-palette-color="primary" id="text-0"></path></svg></g></svg></g></svg></g></svg></g><g transform="matrix(1,0,0,1,135.52632970581266,0)"><svg viewBox="0 0 124.46734058837464 71.30534330810812" height="71.30534330810812" width="124.46734058837464"><g><svg xmlns="http://www.w3.org/2000/svg" xmlns:xlink="http://www.w3.org/1999/xlink" version="1.1" x="8" y="0" viewBox="0 0 100 65.73899841308594" enable-background="new 0 0 100 65.738" xml:space="preserve" width="108.46734058837464" height="71.30534330810812" class="icon-icon-0" data-fill-palette-color="accent" id="icon-0"><path d="M60.942 0h-21.72c-2.512 0-4.552 2.037-4.552 4.549v21.72c0 2.513 2.04 4.552 4.552 4.552h21.72c2.512 0 4.554-2.039 4.554-4.552V4.549C65.496 2.037 63.454 0 60.942 0zM46.79 16.803l3.293-4.897 3.291 4.897H46.79z" fill="#aaaaaa" data-fill-palette-color="accent"></path><path d="M60.861 34.918h-21.72c-2.513 0-4.549 2.037-4.549 4.552v21.715c0 2.518 2.037 4.554 4.549 4.554h21.72c2.516 0 4.554-2.036 4.554-4.554V39.47C65.415 36.955 63.377 34.918 60.861 34.918zM50.083 53.621l-3.293-4.898h6.583L50.083 53.621z" fill="#aaaaaa" data-fill-palette-color="accent"></path><path d="M95.454 34.918H73.735c-2.517 0-4.554 2.037-4.554 4.552v21.715c0 2.518 2.037 4.554 4.554 4.554h21.719c2.518 0 4.546-2.036 4.546-4.554V39.47C100 36.955 97.972 34.918 95.454 34.918zM83.404 53.621v-6.588l4.898 3.296L83.404 53.621z" fill="#aaaaaa" data-fill-palette-color="accent"></path><path d="M26.269 34.918H4.55C2.037 34.918 0 36.955 0 39.47v21.715c0 2.518 2.037 4.554 4.55 4.554h21.719c2.512 0 4.552-2.036 4.552-4.554V39.47C30.821 36.955 28.781 34.918 26.269 34.918zM16.691 53.621l-4.896-3.292 4.896-3.296V53.621z" fill="#aaaaaa" data-fill-palette-color="accent"></path></svg></g></svg></g><g><rect width="135.52632970581266" height="4.652959078610336" y="65.65238422949778" x="259.99367029418727" fill="#aaaaaa" data-fill-palette-color="accent"></rect><rect width="135.52632970581266" height="4.652959078610336" y="65.65238422949778" x="0" fill="#aaaaaa" data-fill-palette-color="accent"></rect><rect width="135.52632970581266" height="4.652959078610336" y="56.34646607227711" x="259.99367029418727" fill="#aaaaaa" data-fill-palette-color="accent"></rect><rect width="135.52632970581266" height="4.652959078610336" y="56.34646607227711" x="0" fill="#aaaaaa" data-fill-palette-color="accent"></rect></g></svg></g><defs></defs></svg><rect width="395.52" height="135.0816266184649" fill="none" stroke="none" visibility="hidden"></rect></g></svg></g></svg>